<svg xmlns="http://www.w3.org/2000/svg" viewBox="0 0 512 512" role="img" aria-label="Deutsch-WiPA logo">
  <defs>
    <linearGradient id="g" x1="0" x2="1" y1="0" y2="1">
      <stop offset="0" stop-color="#145A6E"/>
      <stop offset="0.55" stop-color="#3A7D8C"/>
      <stop offset="1" stop-color="#F2B84B"/>
    </linearGradient>
    <filter id="s" x="-20%" y="-20%" width="140%" height="140%">
      <feDropShadow dx="0" dy="12" stdDeviation="14" flood-opacity=".22"/>
    </filter>
  </defs>
  <rect x="48" y="48" width="416" height="416" rx="108" fill="url(#g)" filter="url(#s)"/>
  <path d="M132 162h128c54 0 92 37 92 91s-38 92-92 92h-54v62h-74V162zm74 66v51h45c17 0 29-10 29-26s-12-25-29-25h-45z" fill="#fff" opacity=".96"/>
  <path d="M338 121c-23 31-34 65-34 101 0 39 13 74 39 105l-37 24c-35-36-53-79-53-128 0-47 17-89 50-126l35 24z" fill="#0B2D35" opacity=".35"/>
  <text x="255" y="438" text-anchor="middle" font-family="Inter,Arial,sans-serif" font-size="46" font-weight="800" fill="#fff">B1/B2</text>
</svg>
